<svg width="20" height="16" viewBox="0 0 20 16" fill="none" xmlns="http://www.w3.org/2000/svg">
<path id="Vector" d="M4.54169 2.25831L1.66669 7.99998V13C1.66669 13.442 1.84228 13.8659 2.15484 14.1785C2.4674 14.4911 2.89133 14.6666 3.33335 14.6666H16.6667C17.1087 14.6666 17.5326 14.4911 17.8452 14.1785C18.1578 13.8659 18.3334 13.442 18.3334 13V7.99998L15.4584 2.25831C15.3204 1.98064 15.1077 1.74696 14.8442 1.58355C14.5806 1.42014 14.2768 1.33348 13.9667 1.33331H6.03335C5.72328 1.33348 5.41941 1.42014 5.15589 1.58355C4.89237 1.74696 4.67967 1.98064 4.54169 2.25831V2.25831Z" stroke="#71717A" stroke-width="1.5" stroke-linecap="round" stroke-linejoin="round"/>
</svg>
